<svg width="37" height="28" fill="none" xmlns="http://www.w3.org/2000/svg"><path d="M18.5 7.313L7 16.813V27c0 .563.438 1 1 1h7c.5 0 .938-.438.938-1v-6c0-.5.5-1 1-1h4c.562 0 1 .5 1 1v6c0 .563.5 1 1 1H30c.5 0 1-.438 1-1V16.75L19.437 7.312A.675.675 0 0019 7.125a.71.71 0 00-.5.188zm18.188 6.437L31.5 9.437V.813a.76.76 0 00-.75-.75h-3.5a.722.722 0 00-.75.75v4.5L20.875.688A3.213 3.213 0 0019 .063c-.75 0-1.438.25-1.938.625L1.25 13.75a.746.746 0 00-.313.563c0 .187.125.374.188.5L2.75 16.75c.125.188.313.25.563.25a.71.71 0 00.5-.188L18.5 4.75a.71.71 0 01.5-.188c.125 0 .313.063.438.188l14.687 12.063a.71.71 0 00.5.187c.25 0 .438-.063.563-.25l1.624-1.938a.71.71 0 00.188-.5.746.746 0 00-.313-.562z" fill="#D90062"/></svg>