<svg width="32" height="24" fill="none" xmlns="http://www.w3.org/2000/svg"><path d="M31.375 7.938c-1.438 1.125-3.25 2.5-9.625 7.125-1.25.937-3.563 3-5.75 3-2.25 0-4.5-2.063-5.813-3C3.814 10.436 2 9.063.563 7.936.313 7.75 0 7.938 0 8.25V21c0 1.688 1.313 3 3 3h26a3 3 0 003-3V8.25c0-.313-.375-.5-.625-.313zM16 16c1.438.063 3.5-1.813 4.563-2.563 8.312-6 8.937-6.562 10.812-8.062.375-.25.625-.688.625-1.188V3c0-1.625-1.375-3-3-3H3a3 3 0 00-3 3v1.188c0 .5.188.937.563 1.187 1.875 1.5 2.5 2.063 10.812 8.063C12.438 14.188 14.5 16.061 16 16z" fill="#D90062"/></svg>